<svg width="88" height="14" viewBox="0 0 88 14" fill="none" xmlns="http://www.w3.org/2000/svg">
<path d="M6.1296 3.8305L7.52264 3.83041C8.39329 3.83035 9.29877 4.00442 9.29884 5.01437C9.2989 5.88502 8.74173 6.51193 7.10491 6.51204L5.57256 6.51214L6.1296 3.8305ZM0.000890672 13.6867L4.0407 13.6864L4.87626 9.68135L7.62751 9.68116C11.1101 9.68093 13.3736 7.38226 13.3735 4.70066C13.3733 1.77528 11.806 0.417176 9.36819 0.41734L2.78608 0.417782L0.000890672 13.6867Z" fill="white"/>
<path d="M18.3539 4.97891L18.8417 8.94904L16.2994 8.94921L18.3539 4.97891ZM9.61313 13.686L13.7923 13.6857L14.8021 11.805L19.1205 11.8048L19.3296 13.6853L23.3346 13.6851L21.3138 0.416512L17.274 0.416783L9.61313 13.686Z" fill="white"/>
<path d="M25.0407 8.80931L22.1844 0.416443L26.2939 0.416167L27.548 5.36137L30.7865 0.415865L35.5924 0.415543L29.1154 8.77421L28.1058 13.6847L24.0311 13.685L25.0407 8.80931Z" fill="white"/>
<path d="M45.344 8.63379C45.1003 9.99202 44.0558 13.9971 38.5185 13.9974C34.6528 13.9977 32.8069 11.4904 32.8066 7.93811C32.8063 3.65452 35.4877 0.0672638 40.0151 0.0669599C42.9753 0.0667612 45.6221 1.35514 45.6921 5.3253L41.8264 5.32556C41.8611 4.07182 41.269 3.37534 40.0153 3.37543C37.7516 3.37558 36.916 5.98758 36.9161 7.86818C36.9162 8.98261 37.1949 10.6542 39.0755 10.6541C40.364 10.654 41.0953 9.78333 41.339 8.59923L45.344 8.63379Z" fill="white"/>
<path d="M47.7116 0.414732L51.8211 0.414456L50.8463 5.01155L54.5727 5.0113L55.5475 0.414206L59.6569 0.41393L56.8718 13.6828L52.7971 13.6831L53.8764 8.42429L50.15 8.42454L49.0359 13.6833L44.9613 13.6836L47.7116 0.414732Z" fill="white"/>
<path d="M60.7362 0.413875L71.7063 0.413139L71.01 3.82613L64.1145 3.82659L63.7664 5.46344L70.1743 5.46301L69.5128 8.63221L63.1049 8.63264L62.7567 10.2695L69.7916 10.269L69.0953 13.682L57.951 13.6828L60.7362 0.413875Z" fill="white"/>
<path d="M74.5282 6.64675L71.4631 0.413113L75.9208 0.412813L77.2096 3.8605L79.8561 0.412549L84.6969 0.412224L79.16 6.64644L82.3993 13.6811L77.8023 13.6814L76.3393 9.98993L73.2401 13.6817L68.2251 13.682L74.5282 6.64675Z" fill="white"/>
<path d="M85.2188 1.00427C85.2187 0.516702 85.567 0.133592 86.0545 0.13356C86.5073 0.133529 86.8904 0.516589 86.8904 1.00415C86.8904 1.49172 86.5422 1.87483 86.0546 1.87486C85.6019 1.87489 85.2188 1.49183 85.2188 1.00427ZM85.0446 1.00428C85.0447 1.59632 85.4974 2.0142 86.0546 2.01416C86.6119 2.01413 87.0646 1.59618 87.0645 1.00414C87.0645 0.446926 86.6117 -0.00578147 86.0545 -0.00574406C85.4973 -0.00570666 85.0446 0.447061 85.0446 1.00428ZM85.6715 1.59628L85.8457 1.59626L85.8456 1.1087L86.0198 1.10869L86.3332 1.63106L86.5422 1.63104L86.1939 1.10868C86.368 1.10867 86.5073 1.00418 86.5073 0.795223C86.5073 0.551441 86.368 0.446972 86.0894 0.446991L85.6715 0.447019L85.6715 1.59628ZM85.8456 0.586311L86.0894 0.586295C86.2287 0.586286 86.3332 0.621105 86.3332 0.760409C86.3332 0.934538 86.1939 0.969374 86.0197 0.969385L85.8456 0.969397L85.8456 0.586311Z" fill="white"/>
</svg>
