<svg width="23" height="14" viewBox="0 0 23 14" fill="none" xmlns="http://www.w3.org/2000/svg">
<path d="M20.3585 0.876126H14.8883V2.39742H20.38L20.3585 0.876126ZM19.204 11.3418C18.789 11.6167 18.299 11.7562 17.8014 11.741C17.472 11.7753 17.1391 11.7413 16.8235 11.641C16.5079 11.5408 16.2164 11.3764 15.9672 11.1583C15.5065 10.636 15.2667 9.95517 15.2983 9.25941H22.4408C22.4923 8.53497 22.4304 7.80692 22.2574 7.10155C22.09 6.43048 21.7971 5.79716 21.3942 5.235C20.9887 4.68972 20.4649 4.24338 19.8621 3.9295C19.1915 3.59885 18.4519 3.43243 17.7043 3.44398C17.0012 3.43883 16.3041 3.57457 15.6543 3.84318C15.0593 4.09403 14.5201 4.4608 14.0683 4.92212C13.6177 5.39265 13.2688 5.95089 13.0433 6.56209C12.8013 7.22191 12.6807 7.92007 12.6873 8.62285C12.6762 9.33559 12.7931 10.0445 13.0325 10.716C13.2359 11.324 13.5587 11.8852 13.982 12.3667C14.4199 12.8395 14.9582 13.2081 15.5572 13.4457C16.2252 13.7002 16.9356 13.8247 17.6503 13.8125C18.6531 13.8438 19.6432 13.5813 20.4987 13.0572C21.3628 12.4432 21.985 11.5462 22.2574 10.5218H19.8729C19.7453 10.8607 19.5104 11.1486 19.204 11.3418ZM15.5033 6.89656C15.5872 6.62756 15.7266 6.37914 15.9125 6.16729C16.0983 5.95545 16.3264 5.78488 16.5822 5.66658C16.9209 5.51411 17.2898 5.44033 17.6611 5.45079C17.9294 5.42788 18.1994 5.46327 18.4527 5.55452C18.7059 5.64578 18.9365 5.79074 19.1285 5.97947C19.4951 6.42823 19.7303 6.9697 19.8082 7.54392H15.3306C15.3481 7.32466 15.3879 7.10775 15.4493 6.89656H15.5033ZM9.79572 6.37867C10.3449 6.15001 10.822 5.77723 11.1768 5.29974C11.5028 4.79265 11.6648 4.19743 11.6407 3.59503C11.6618 3.04568 11.5547 2.49896 11.3278 1.99821C11.1372 1.56439 10.8312 1.1912 10.4431 0.919283C10.0316 0.636574 9.56441 0.445269 9.07284 0.358239C8.4911 0.236226 7.89775 0.178338 7.3034 0.18561H0.862183V13.7586H7.44366C8.04429 13.759 8.64252 13.6828 9.22389 13.532C9.77495 13.3894 10.297 13.1521 10.7668 12.8307C11.2218 12.5153 11.5923 12.0929 11.8457 11.6007C12.1261 11.0502 12.2634 10.438 12.2449 9.82046C12.2653 9.05521 12.0507 8.3021 11.6299 7.6626C11.1774 7.01947 10.5062 6.56308 9.74178 6.37867H9.79572ZM3.85082 2.50531H6.64525C6.90198 2.50499 7.15826 2.52665 7.41129 2.57005C7.64428 2.60457 7.86804 2.68527 8.06944 2.80741C8.26402 2.91748 8.42169 3.08265 8.52259 3.28214C8.64755 3.52136 8.7071 3.78934 8.69522 4.05897C8.71532 4.2912 8.67981 4.52487 8.59162 4.74064C8.50344 4.95641 8.36512 5.14807 8.18812 5.29974C7.80199 5.56519 7.33995 5.69774 6.87182 5.67737H3.85082V2.50531ZM9.07284 10.5326C8.96199 10.7524 8.79436 10.9387 8.58732 11.072C8.37187 11.206 8.13446 11.301 7.88602 11.3525C7.60988 11.4144 7.32739 11.4433 7.04445 11.4389H3.80766V7.71654H7.04445C7.5999 7.69222 8.14843 7.84732 8.6089 8.15891C8.81693 8.34559 8.97808 8.57864 9.0793 8.83919C9.18052 9.09973 9.21896 9.38045 9.19152 9.65862C9.22069 9.9552 9.18005 10.2545 9.07284 10.5326Z" fill="white"/>
</svg>
