<svg width="19" height="18" viewBox="0 0 19 18" fill="none" xmlns="http://www.w3.org/2000/svg">
<path d="M0.862183 2.47476C0.862183 1.90236 1.06489 1.43014 1.47029 1.0581C1.87569 0.686036 2.40273 0.500015 3.05137 0.500015C3.68844 0.500015 4.20388 0.683169 4.5977 1.04951C5.0031 1.42729 5.20581 1.91953 5.20581 2.52627C5.20581 3.07577 5.00891 3.53367 4.61508 3.90001C4.20968 4.27779 3.67685 4.46668 3.01662 4.46668H2.99925C2.36218 4.46668 1.84674 4.27779 1.45292 3.90001C1.05909 3.52223 0.862183 3.04714 0.862183 2.47476ZM1.08805 17.5V6.0293H4.94519V17.5H1.08805ZM7.08226 17.5H10.9394V11.0949C10.9394 10.6943 10.9857 10.3852 11.0784 10.1677C11.2406 9.77845 11.4867 9.44932 11.8168 9.1803C12.1469 8.91127 12.561 8.77677 13.0591 8.77677C14.3564 8.77677 15.005 9.64107 15.005 11.3697V17.5H18.8622V10.9232C18.8622 9.22895 18.4568 7.94394 17.646 7.06819C16.8351 6.19243 15.7637 5.75455 14.4317 5.75455C12.9375 5.75455 11.7734 6.3899 10.9394 7.66061V7.69495H10.922L10.9394 7.66061V6.0293H7.08226C7.10542 6.39562 7.11701 7.53467 7.11701 9.44646C7.11701 11.3582 7.10542 14.0427 7.08226 17.5Z" fill="white"/>
</svg>
