<svg width="26" height="24" viewBox="0 0 26 24" fill="none" xmlns="http://www.w3.org/2000/svg">
<g filter="url(#filter0_d_205_138)">
<path d="M22.0001 2.57084C21.3408 2.85685 20.6436 3.04592 19.9301 3.13217C20.6828 2.68251 21.2469 1.97511 21.5177 1.14119C20.8103 1.56225 20.0361 1.85891 19.2285 2.01828C18.6887 1.43289 17.9698 1.04322 17.1847 0.910391C16.3996 0.777561 15.5926 0.909081 14.8902 1.28432C14.1879 1.65957 13.63 2.25731 13.304 2.9838C12.978 3.7103 12.9023 4.52445 13.0889 5.29857C11.6587 5.22623 10.2598 4.85385 8.98295 4.2056C7.7061 3.55736 6.57991 2.64775 5.67752 1.53588C5.36101 2.08859 5.1947 2.71453 5.19512 3.35145C5.194 3.94293 5.33916 4.52552 5.61766 5.04734C5.89617 5.56916 6.29939 6.01402 6.79142 6.3423C6.21954 6.32674 5.65988 6.17329 5.16004 5.89499V5.93884C5.16433 6.76759 5.45474 7.56942 5.98214 8.20871C6.50955 8.84799 7.24159 9.28548 8.05442 9.44718C7.74152 9.5424 7.41667 9.59261 7.08963 9.59628C6.86324 9.59364 6.63742 9.57311 6.41427 9.53489C6.64574 10.2478 7.09368 10.8708 7.69576 11.3173C8.29783 11.7637 9.0241 12.0114 9.7735 12.0258C8.50805 13.0215 6.94568 13.565 5.33546 13.5695C5.04228 13.5704 4.74933 13.5529 4.45837 13.5168C6.1024 14.5783 8.01829 15.1418 9.97523 15.1395C11.3257 15.1535 12.6654 14.8983 13.9161 14.3887C15.1668 13.8792 16.3034 13.1256 17.2596 12.1718C18.2158 11.2181 18.9723 10.0834 19.4851 8.83401C19.9978 7.58462 20.2564 6.24558 20.2459 4.89511C20.2459 4.74601 20.2459 4.58813 20.2459 4.43026C20.9341 3.917 21.5277 3.28779 22.0001 2.57084Z" fill="white"/>
</g>
<defs>
<filter id="filter0_d_205_138" x="0.458374" y="0.860001" width="25.5416" height="22.28" filterUnits="userSpaceOnUse" color-interpolation-filters="sRGB">
<feFlood flood-opacity="0" result="BackgroundImageFix"/>
<feColorMatrix in="SourceAlpha" type="matrix" values="0 0 0 0 0 0 0 0 0 0 0 0 0 0 0 0 0 0 127 0" result="hardAlpha"/>
<feOffset dy="4"/>
<feGaussianBlur stdDeviation="2"/>
<feComposite in2="hardAlpha" operator="out"/>
<feColorMatrix type="matrix" values="0 0 0 0 0 0 0 0 0 0 0 0 0 0 0 0 0 0 0.25 0"/>
<feBlend mode="normal" in2="BackgroundImageFix" result="effect1_dropShadow_205_138"/>
<feBlend mode="normal" in="SourceGraphic" in2="effect1_dropShadow_205_138" result="shape"/>
</filter>
</defs>
</svg>
